<svg xmlns="http://www.w3.org/2000/svg" xmlns:xlink="http://www.w3.org/1999/xlink" viewBox="0 0 422.7 424.9"><style>.st2{clip-path:url(#SVGID_2_)}.st25{fill:#202124}.st52{fill:#3c4043}.st56{fill:#5f6368}</style><g id="phone"><circle class="st52" cx="211.3" cy="212.4" r="211.3"/><path d="M19.2 300.5C52.5 373.2 126 423.8 211.3 423.8s158.8-50.5 192.2-123.3H19.2z" opacity=".57" fill="#202124"/><defs><circle id="SVGID_71_" cx="211.3" cy="212.4" r="211.3"/></defs><clipPath id="SVGID_2_"><use xlink:href="#SVGID_71_" overflow="visible"/></clipPath><g class="st2"><path d="M366.4 338.1H23.6c-1.5 0-2.7-1.2-2.7-2.7v-2.1c0-1.5 1.2-2.7 2.7-2.7h342.8c1.5 0 2.7 1.2 2.7 2.7v2.1c.1 1.5-1.2 2.7-2.7 2.7z" fill="#231f20"/><path class="st56" d="M302.6 314.1V106.5c0-5.2-4.2-9.5-9.5-9.5H.9c-5.2 0-9.5 4.2-9.5 9.5v207.6h311.2z"/><defs><path id="SVGID_73_" d="M145.4 104.1c2.1 0 3.6 1.6 3.6 3.7s-1.6 3.7-3.6 3.7c-2.1 0-3.6-1.6-3.6-3.7s1.5-3.7 3.6-3.7z"/></defs><use xlink:href="#SVGID_73_" overflow="visible" fill-rule="evenodd" clip-rule="evenodd" fill="#3c4043"/><clipPath id="SVGID_4_"><use xlink:href="#SVGID_73_" overflow="visible"/></clipPath><g clip-path="url(#SVGID_4_)"><defs><path id="SVGID_75_" d="M-2386.1-862.8h4091.4v2435.4h-4091.4z"/></defs><use xlink:href="#SVGID_75_" overflow="visible" fill="#3c4043"/><clipPath id="SVGID_6_"><use xlink:href="#SVGID_75_" overflow="visible"/></clipPath><path clip-path="url(#SVGID_6_)" fill="#3c4043" d="M129.6 91.9h31.7v31.7h-31.7z"/></g></g><path d="M302.5 314.1V106.5c0-5.2-4.2-9.5-9.5-9.5H.8c-5.2 0-9.5 4.2-9.5 9.5v207.6" clip-path="url(#SVGID_2_)" fill="none" stroke="#58595b" stroke-width="2" stroke-miterlimit="10"/><g class="st2"><path class="st25" d="M-2.4 120h287.1v176.5H-2.4z"/><path class="st52" d="M9.1 120h275.7v4H9.1zm99.4 29.8H61.7c-2.8 0-5.1-2.3-5.1-5.1v-4c0-2.8 2.3-5.1 5.1-5.1h46.8c2.8 0 5.1 2.3 5.1 5.1v4c0 2.8-2.3 5.1-5.1 5.1zm123.3 96.6H185c-2.8 0-5.1-2.3-5.1-5.1v-4c0-2.8 2.3-5.1 5.1-5.1h46.8c2.8 0 5.1 2.3 5.1 5.1v4c0 2.8-2.3 5.1-5.1 5.1zm0 19.6H185c-2.8 0-5.1-2.3-5.1-5.1v-4c0-2.8 2.3-5.1 5.1-5.1h46.8c2.8 0 5.1 2.3 5.1 5.1v4c0 2.8-2.3 5.1-5.1 5.1zm-21.1 21.4h-149c-2.8 0-5.1-2.3-5.1-5.1v-4c0-2.8 2.3-5.1 5.1-5.1h149c2.8 0 5.1 2.3 5.1 5.1v4c0 2.8-2.3 5.1-5.1 5.1zm-108.9-65.3H68.4c-6.6 0-11.9-5.3-11.9-11.9v-40c0-6.6 5.3-11.9 11.9-11.9h33.3c6.6 0 11.9 5.3 11.9 11.9v40c0 6.6-5.3 11.9-11.8 11.9z"/><circle class="st52" cx="228.4" cy="280.6" r="7.5"/></g><path d="M-17.3 313.3v5.8c0 7.9 7 14.1 15.9 14.1h357.1c8.9 0 15.9-6.2 15.9-14.1v-5.8H-17.3z" clip-path="url(#SVGID_2_)" fill="#4e5155"/><path d="M193.9 321.2h-57c-4.2 0-7.6-3.5-7.6-7.8h72.6c0 4.3-3.4 7.8-8 7.8z" clip-path="url(#SVGID_2_)" fill="#202124"/><path class="st25" d="M393 209.8l-51.3.4c-9.2.1-16.6-7.3-16.7-16.5l-.9-126.2c-.1-9.2 7.3-16.6 16.5-16.7l51.3-.4c9.2-.1 16.6 7.3 16.7 16.5l.9 126.2c0 9.2-7.3 16.7-16.5 16.7z"/><path class="st56" d="M395.7 204.5h-65.3c-5.3 0-9.6-4.3-9.6-9.6V54.7c0-5.3 4.3-9.6 9.6-9.6h65.3c5.3 0 9.6 4.3 9.6 9.6v140.2c-.1 5.3-4.4 9.6-9.6 9.6z"/><path class="st25" d="M320.8 67h84.4v119.6h-84.4z"/><circle class="st52" cx="362.3" cy="56.8" r="3.4"/><path class="st52" d="M320.8 67h84.4v3.7h-84.4z"/><path d="M330.4 47.2h65.3c4.2 0 7.6 3.4 7.6 7.6V195c0 4.2-3.4 7.6-7.6 7.6h-65.3c-2 0-3.9-.8-5.3-2.2-1.4-1.4-2.2-3.3-2.2-5.3V54.9c-.1-4.3 3.3-7.7 7.5-7.7m0-2c-5.3 0-9.6 4.3-9.6 9.6V195c0 5.3 4.3 9.6 9.6 9.6h65.3c5.3 0 9.6-4.3 9.6-9.6V54.8c0-5.3-4.3-9.6-9.6-9.6h-65.3z" fill="#58595b"/><defs><circle id="SVGID_85_" cx="-312.7" cy="1075.2" r="211.3"/></defs><clipPath id="SVGID_8_"><use xlink:href="#SVGID_85_" overflow="visible"/></clipPath><g clip-path="url(#SVGID_8_)"><defs><path id="SVGID_87_" d="M-378.6 966.8c2.1 0 3.6 1.6 3.6 3.7s-1.6 3.7-3.6 3.7c-2.1 0-3.6-1.6-3.6-3.7s1.5-3.7 3.6-3.7z"/></defs><use xlink:href="#SVGID_87_" overflow="visible" fill-rule="evenodd" clip-rule="evenodd" fill="#dadce5"/><clipPath id="SVGID_10_"><use xlink:href="#SVGID_87_" overflow="visible"/></clipPath><g clip-path="url(#SVGID_10_)"><defs><path id="SVGID_89_" d="M-2910.2 0h4091.4v2435.4h-4091.4z"/></defs><use xlink:href="#SVGID_89_" overflow="visible" fill="#dadce5"/><clipPath id="SVGID_12_"><use xlink:href="#SVGID_89_" overflow="visible"/></clipPath></g></g></g></svg>